<?xml version="1.0" encoding="UTF-8" standalone="no"?>
<svg viewBox="0 0 128 128" xmlns="http://www.w3.org/2000/svg">
<defs>
<linearGradient gradientUnits="userSpaceOnUse" id="linearGradient2852" x2="0" y1="1101.56763" y2="924.31858">
<stop offset="0" stop-color="#04a"/>
<stop offset="1" stop-color="#59f"/>
</linearGradient>
<linearGradient gradientUnits="userSpaceOnUse" id="linearGradient2854" x1="64.02175" x2="97.42951" y1="1186.23513" y2="932.84677">
<stop offset="0" stop-color="#e6e6e6"/>
<stop offset="1" stop-color="#f9f9f9"/>
</linearGradient>
<linearGradient gradientUnits="userSpaceOnUse" id="linearGradient2902" x1="25.35691" x2="39.10387" y1="984.86265" y2="933.39319">
<stop offset="0" stop-color="#fff"/>
<stop offset="1" stop-color="#fff" stop-opacity="0"/>
</linearGradient>
</defs>
<g transform="translate(0,-924.36218)">
<path d="m98.32315,1002.2618c-1.28781-.1154-1.7911-1.576-1.7911-2.1385l-1.1e-005-57.99746c0,0 .21388-2.4878-2.32112-2.71511l-66.31535-5.95545c-2.4665-.47942-2.20671,2.04391-2.20671,2.04391l-4.4e-005,92.35731c0,2.1942 1.4249,2.3882 2.13734,2.4523l67.02716,6.0274c1.89653.2391 1.6787-1.2939 1.6787-1.2939l1.1e-005-5.1026c0,0-.22015-1.8127 1.79292-1.6322l2.47856.2224c1.75081.1569 1.55222-1.3166 1.55222-1.3166l-2e-005-23.0146c-.0242-1.7457-1.61467-1.657-1.61467-1.657l-2.41787-.2798v-.0001z" fill="url(#linearGradient2854)" fill-rule="evenodd" stroke="#b3b3b3"/>
<path d="m65.54713,949.2266v90.2849c0,1.8069-1.11441,2.8851-2.49867,2.4174l-35.26505-11.6383c-1.11021-.1594-2.32739-.2099-2.08759-4.0373v-90.49038c-.2398-2.49183 1.31995-2.50843 3.04678-2.24622l34.30586,11.60411c1.38426.46767 2.49867,2.29884 2.49867,4.10579z" fill="url(#linearGradient2852)" fill-rule="evenodd" opacity=".512" stroke="#025"/>
<path d="m27.51509,933.39331c-1.15595.0109-1.99546.49399-1.81561,2.36287v49.2092c3.73027-4.86957 9.61168-10.26631 18.84128-15.71818 7.44499-4.39771 14.5372-6.04971 20.99946-6.02701v-14.00596c0-1.80695-1.11649-3.64166-2.50075-4.10933l-34.29113-11.57461c-.43171-.0656-.84793-.1406-1.23325-.13698z" fill="url(#linearGradient2902)" fill-rule="evenodd" opacity=".5348"/>
</g>
</svg>
