<?xml version="1.0" encoding="UTF-8" standalone="no"?>
<svg viewBox="0 0 49.99255 49.99255" xmlns="http://www.w3.org/2000/svg">
<defs>
<linearGradient gradientUnits="userSpaceOnUse" id="linearGradient3841" x1="418.56085" x2="418.56082" y1="792.28839" y2="793.81287">
<stop offset="0" stop-color="#fff"/>
<stop offset="1" stop-color="#f1f1f1"/>
</linearGradient>
<linearGradient gradientUnits="userSpaceOnUse" id="linearGradient3648-7" x2="0" y1="796.31158" y2="808.75488">
<stop offset="0" stop-color="#004c91"/>
<stop offset="1" stop-color="#00d7ff"/>
</linearGradient>
<linearGradient gradientUnits="userSpaceOnUse" id="linearGradient3048-7" x2="0" y1="808.20612" y2="780.18079">
<stop offset="0" stop-color="#fff" stop-opacity=".5"/>
<stop offset=".3125" stop-color="#fff" stop-opacity="0"/>
<stop offset=".7478" stop-color="#fff" stop-opacity="0"/>
<stop offset="1" stop-color="#fff" stop-opacity=".75"/>
</linearGradient>
<radialGradient cx="393.28906" cy="808.21918" gradientUnits="userSpaceOnUse" id="radialGradient3970-8" r="16.25">
<stop offset="0" stop-color="#a8ffff" stop-opacity=".5"/>
<stop offset="1" stop-color="#a8ffff" stop-opacity="0"/>
</radialGradient>
<radialGradient cx="494.67642" cy="810.38684" gradientTransform="matrix(.062035,1.3314005e-7,-1.3368062e-7,.062287,442.53831,768.32631)" gradientUnits="userSpaceOnUse" id="radialGradient3119" r="20.66967">
<stop offset="0" stop-color="#fff" stop-opacity="0"/>
<stop offset="1" stop-color="#fff" stop-opacity=".75"/>
</radialGradient>
</defs>
<g transform="matrix(22.709098,0,0,22.709098,-10720.72042,-18567.514)">
<path d="m409.28571,792.00507c0,8.97462-7.27538,16.25-16.25,16.25s-16.25-7.27538-16.25-16.25 7.27537-16.25 16.25-16.25 16.25,7.27537 16.25,16.25z" fill="url(#linearGradient3648-7)" stroke="#000091" stroke-width="1.00499" transform="matrix(.065714,0,0,.065714,447.36199,766.67888)"/>
<path d="m409.28571,792.00507c0,8.97462-7.27538,16.25-16.25,16.25s-16.25-7.27538-16.25-16.25 7.27537-16.25 16.25-16.25 16.25,7.27537 16.25,16.25z" fill="none" stroke="url(#linearGradient3048-7)" stroke-width="1.07143" transform="matrix(.061649,0,0,.061649,448.95972,769.89847)"/>
<path d="m409.28571,792.00507c0,8.97462-7.27538,16.25-16.25,16.25s-16.25-7.27538-16.25-16.25 7.27537-16.25 16.25-16.25 16.25,7.27537 16.25,16.25z" fill="url(#radialGradient3970-8)" transform="matrix(.063682,0,0,.063682,448.16094,768.28878)"/>
<path d="m472.15527,818.6944c-.002.28939.68468-.16339.99234-.15996 .30277.003 1.07727.48275 1.07727.12441s-.3658-.96862-1.02364-.96862-1.04351.55895-1.04597,1.00417z" fill="url(#radialGradient3119)"/>
</g>
<path d="m394.9375,778.3125a1.57118,1.57118 0 0,0 -1.4375,1.5625v26.40625a1.57118,1.57118 0 0,0 2.34375,1.375l22.875-13.21875a1.57118,1.57118 0 0,0 0-2.75l-22.875-13.1875a1.57118,1.57118 0 0,0 -.90625-.1875z" fill="url(#linearGradient3841)" fill-rule="evenodd" stroke="#404040" stroke-linejoin="round" stroke-width=".30858" transform="matrix(.753454,0,0,.753454,-279.287101,-572.5474)"/>
</svg>
