<?xml version="1.0" encoding="UTF-8" standalone="no"?>
<svg viewBox="0 0 128 128" xmlns="http://www.w3.org/2000/svg">
<defs>
<linearGradient gradientUnits="userSpaceOnUse" id="linearGradient3693" x1="83.93891" x2="192.12625" y1="217.90489" y2="139.94636">
<stop offset="0" stop-color="#ffd42a"/>
<stop offset="1" stop-color="#fff6d5"/>
</linearGradient>
<linearGradient gradientUnits="userSpaceOnUse" id="linearGradient3695" x1="147.93458" x2="162.30999" y1="147.78487" y2="168.6188">
<stop offset="0" stop-color="#ffe6d5"/>
<stop offset="1" stop-color="#2b1100"/>
</linearGradient>
</defs>
<g transform="translate(-45.97056,-126.12337)">
<g opacity=".46635" transform="translate(2.44486,2.2268)">
<path d="m117.90625,144.71875c-19.72797,13.68922-39.46533,27.36495-59.1875,41.0625 10.25953,14.79228 20.51093,29.59023 30.78125,44.375 19.94619-13.84612 39.91762-27.65683 59.84375-41.53125 .97308-7.6587 3.65731-15.73071 3.59375-23.15625-4.35056-5.57178-7.75062-12.62233-12.6875-17.28125-7.36906-.90649-15.21987-3.58753-22.34375-3.46875zm19.3125,16.34375c4.4564-.35701 3.73751,7.32186-.6875,5.875-3.20238-.8292-2.61716-5.74344.6875-5.875z" fill-rule="evenodd" opacity=".34615"/>
<path d="m118.25,145.96875c-19.27981,13.37801-38.57036,26.74019-57.84375,40.125 9.79835,14.12807 19.59882,28.25489 29.40625,42.375 19.4686-13.51291 38.96055-26.99271 58.40625-40.53125 1.02649-7.539 3.44683-15.24429 3.46875-22.125-4.24768-5.55078-7.59192-12.16205-12.0625-16.5-7.29444-.96256-14.78332-3.3748-21.375-3.34375zm18.875,13.875h.0312c1.44281-.10481 2.72374.52645 3.4375,1.46875 .71922.94951.92779,2.10762.8125,3.21875s-.57304,2.23627-1.5,3c-.913.75223-2.29259.99692-3.6875.5625v.0312l-.0625-.0312c-2.13167-.59259-3.15124-2.6881-2.9375-4.5 .21511-1.82353 1.67524-3.64431 3.90625-3.75z" fill-rule="evenodd" opacity=".34615"/>
<path d="m118.5,146.78125c-18.97867,13.16892-37.96562,26.32529-56.9375,39.5 9.48364,13.67472 18.94587,27.36469 28.4375,41.03125 19.16344-13.30005 38.36129-26.55097 57.5-39.875 1.05684-7.42718 3.30197-14.85759 3.375-21.375-4.19129-5.53408-7.49352-11.86179-11.6875-16-7.20314-.99171-14.45424-3.24791-20.6875-3.28125zm18.5625,12.25h.0625c1.66808-.11171 3.25975.63896 4.125,1.78125 .87632,1.1569 1.13408,2.52031 1,3.8125s-.67506,2.5941-1.8125,3.53125c-1.10845.91326-2.81175,1.19583-4.40625.71875v.0312l-.0625-.0312c-.0208-.007-.0417.007-.0625,0v-.0312c-2.48392-.72483-3.75051-3.22007-3.5-5.34375 .2532-2.14642 2.0329-4.32992 4.65625-4.46875z" fill-rule="evenodd" opacity=".34615"/>
</g>
<path d="m142.67321,170.41033c-2.26904,1.57383-5.3843,1.01024-6.95811-1.25882s-1.01024-5.38428 1.25881-6.95811 5.3843-1.01023 6.95811,1.25882 1.01023,5.3843-1.25881,6.95811zm-21.20638-21.80112 20.87435,3.77643 11.39859,16.43384-3.77641,20.87437-57.51852,39.89512-28.49652-41.08464 57.5185-39.89512z" fill="url(#linearGradient3693)" fill-rule="evenodd"/>
<path d="m159.75736,147.85181c-1.10548.17253-2.4419.70618-4.00002,1.49998-3.11617,1.58771-7.04481,4.16051-10.84375,6.71876l.56253.84373c3.79242-2.5539 7.69093-5.11357 10.71876-6.65626 1.51394-.77131 2.82226-1.29756 3.71875-1.43749 .44825-.07.76952-.0465.96876.0312s.29842.16563.37501.40626c.0842.26454.008.83795-.37501,1.56249s-1.01774,1.58739-1.84376,2.53125c-1.65199,1.88772-4.0372,4.05558-6.59374,6.03125s-5.30061,3.75523-7.625,4.90624c-1.16221.57552-2.22558.98502-3.09376,1.18751-.60773.14172-.94217.0574-1.31248,1e-005 .56033-1.22967 1.28332-2.47492 1.71875-3.62502l-.93752-.34374c-.44391,1.17256-1.42172,2.66907-2.03124,4.25001l-.15626.40624 .40626.21876c.70323.35161 1.54689.32335 2.53125.0937s2.10547-.68354 3.31249-1.28124c2.41405-1.19542 5.1837-3.02387 7.78126-5.03125s5.03357-4.19493 6.74998-6.15626c.85822-.98067 1.52718-1.88423 1.96877-2.71874s.69393-1.60477.46876-2.31251c-.15336-.48193-.52334-.88843-.96875-1.06251s-.94726-.14876-1.49999-.0625z" fill="url(#linearGradient3695)"/>
</g>
</svg>
